PathFileType  4	(X/Y/Z) W:\OA_GaitRetraining\ACL OpenCap study\PS1\Edited\
DataRate	CameraRate	NumFrames	NumMarkers	Units	OrigDataRate	OrigDataStartFrame	OrigNumFrames
  200.0		  200.0		    4		     46		 mm	  200.0	      92	    147
Frame#	Time	C7			R_Shoulder			L_Shoulder			Sternum			R_humerus			R_elbow_med			R_elbow_lat			R_forearm			R_wrist_radius			R_wrist_ulna			L_humerus			L_elbow_med			L_elbow_lat			L_forearm			L_wrist_radius			L_wrist_ulna			r.ASIS			r.PSIS			L.ASIS			L.PSIS			r_thigh1			r_thigh2			r_thigh3			r_thigh4			r_thigh5			r_knee			r_shank_antsup			r_sh2			r_sh3			r_sh4			r_ankle			r_calc			r_5meta			r_toe			L_thigh1			L_thigh2			L_thigh3			L_thigh4			L_knee			L_shank_antsup			L_sh2			L_sh3			L_ankle			L_calc			L_5meta			L_toe			
		X1	Y1	Z1	X2	Y2	Z2	X3	Y3	Z3	X4	Y4	Z4	X5	Y5	Z5	X6	Y6	Z6	X7	Y7	Z7	X8	Y8	Z8	X9	Y9	Z9	X10	Y10	Z10	X11	Y11	Z11	X12	Y12	Z12	X13	Y13	Z13	X14	Y14	Z14	X15	Y15	Z15	X16	Y16	Z16	X17	Y17	Z17	X18	Y18	Z18	X19	Y19	Z19	X20	Y20	Z20	X21	Y21	Z21	X22	Y22	Z22	X23	Y23	Z23	X24	Y24	Z24	X25	Y25	Z25	X26	Y26	Z26	X27	Y27	Z27	X28	Y28	Z28	X29	Y29	Z29	X30	Y30	Z30	X31	Y31	Z31	X32	Y32	Z32	X33	Y33	Z33	X34	Y34	Z34	X35	Y35	Z35	X36	Y36	Z36	X37	Y37	Z37	X38	Y38	Z38	X39	Y39	Z39	X40	Y40	Z40	X41	Y41	Z41	X42	Y42	Z42	X43	Y43	Z43	X44	Y44	Z44	X45	Y45	Z45	X46	Y46	Z46	

92	0.45500	-6.986	1153.013	-896.477	149.700	1100.254	-936.276	-111.842	1036.061	-987.228	41.194	1023.351	-976.166	288.749	1030.589	-744.753	241.453	1006.459	-624.764	311.734	1005.097	-654.157	353.903	862.408	-593.815	367.910	812.293	-525.521	352.064	786.388	-566.955	-187.784	881.174	-1015.640	-154.846	699.412	-1001.647	-209.706	723.942	-1037.745	-180.922	740.078	-1122.621	-86.521	750.044	-1231.289	-116.650	705.813	-1240.972	197.490	717.190	-739.800	66.136	809.520	-594.613	-53.577	740.172	-812.087	0.008	814.009	-606.059	247.088	655.850	-770.394	267.380	588.680	-871.489	297.197	539.968	-856.089	267.427	567.314	-705.651	277.707	503.869	-802.441	287.703	421.961	-946.445	254.269	322.595	-943.616	182.469	238.256	-901.693	249.132	357.669	-875.269	179.187	277.001	-826.336	92.344	146.507	-792.475	12.488	159.058	-747.867	115.098	53.016	-852.987	95.978	86.780	-923.662	-86.483	670.340	-867.923	-97.135	572.486	-965.045	-164.982	620.214	-793.256	-164.873	518.680	-890.896	-169.474	429.785	-1008.265	-234.845	279.383	-1026.961	-257.926	317.607	-948.392	-289.264	205.830	-912.842	-339.228	104.343	-918.667	-332.166	74.778	-839.767	-352.036	22.294	-1007.306	-287.952	57.000	-1034.511
93	0.46000	-0.401	1153.992	-906.464	156.536	1101.857	-943.002	-104.209	1038.329	-998.077	48.586	1024.615	-984.463	293.521	1034.624	-748.491	244.706	1011.143	-629.746	315.462	1011.310	-657.246	361.896	872.037	-592.419	376.316	824.774	-522.046	362.126	796.593	-561.982	-176.588	883.020	-1029.586	-137.827	702.160	-1021.707	-191.763	726.527	-1058.998	-160.141	748.634	-1141.094	-62.085	767.418	-1245.474	-89.819	723.162	-1258.496	201.937	718.686	-747.406	69.878	810.636	-602.394	-49.066	741.122	-819.919	4.440	815.815	-614.110	253.083	660.453	-775.633	272.952	594.272	-877.524	304.664	547.001	-863.487	273.740	571.670	-712.652	285.203	508.786	-810.389	297.671	428.971	-955.169	266.139	329.211	-955.446	194.138	242.903	-914.767	258.749	362.698	-885.210	188.235	280.979	-839.680	103.441	147.999	-808.881	22.591	158.537	-765.397	129.050	55.609	-870.553	110.986	90.671	-940.490	-83.920	669.359	-876.473	-94.142	570.320	-971.224	-160.958	619.804	-800.174	-161.564	517.204	-896.219	-167.583	427.810	-1012.099	-234.072	277.799	-1030.016	-256.058	317.186	-951.262	-288.097	206.060	-914.616	-338.779	104.839	-919.248	-332.022	75.964	-839.622	-352.087	22.364	-1007.265	-288.016	56.932	-1034.605
94	0.46500	4.729	1155.829	-913.699	163.671	1103.726	-949.443	-96.245	1040.943	-1008.958	56.281	1026.254	-992.774	298.164	1038.667	-752.104	248.388	1016.034	-634.213	319.138	1017.755	-660.486	369.599	882.480	-590.087	383.929	838.545	-519.163	372.241	808.026	-557.821	-164.857	885.628	-1044.384	-120.309	705.692	-1040.695	-173.523	730.084	-1079.412	-138.811	757.529	-1159.645	-37.994	786.050	-1257.960	-62.838	741.158	-1274.248	206.510	720.181	-754.911	74.485	812.711	-610.319	-44.369	742.007	-827.836	8.915	817.652	-622.245	257.740	665.131	-781.781	278.581	601.693	-885.888	312.314	553.974	-870.776	280.229	576.233	-720.017	294.427	515.628	-818.044	308.386	436.066	-963.497	277.138	334.567	-964.996	206.111	247.713	-927.561	268.516	367.976	-894.826	198.266	284.584	-851.952	114.954	149.717	-825.203	33.029	158.288	-782.961	143.465	58.821	-887.446	126.271	94.003	-956.535	-80.909	668.494	-884.645	-92.104	568.142	-978.024	-156.853	619.609	-806.840	-158.190	515.713	-901.663	-165.707	425.805	-1015.963	-232.468	276.720	-1032.279	-254.147	316.641	-954.063	-287.022	206.498	-916.282	-338.333	106.774	-920.310	-331.520	76.505	-840.337	-352.183	22.532	-1007.223	-288.062	56.869	-1034.709
95	0.47000	11.032	1157.830	-922.076	171.336	1106.232	-956.568	-87.795	1043.973	-1019.857	64.195	1028.101	-1000.997	302.849	1043.080	-755.357	252.081	1021.489	-638.493	323.071	1024.673	-663.981	376.872	893.442	-589.273	391.415	852.324	-516.572	381.790	820.420	-553.822	-152.687	888.661	-1058.560	-102.516	709.999	-1058.816	-154.768	734.545	-1099.061	-117.502	767.273	-1176.680	-13.530	803.985	-1268.305	-36.072	759.842	-1288.155	211.448	721.726	-762.331	78.826	814.224	-618.150	-39.197	742.611	-836.005	13.532	819.318	-630.590	262.436	670.067	-788.165	285.923	607.345	-891.762	320.197	561.064	-877.861	286.927	580.691	-726.713	303.053	521.607	-825.596	318.925	443.432	-971.817	288.826	341.156	-974.734	218.443	252.728	-940.000	278.610	373.666	-903.951	208.326	288.393	-864.229	126.723	151.886	-841.259	43.901	158.325	-800.591	158.496	62.576	-903.920	141.734	98.173	-972.953	-78.032	667.532	-892.763	-90.681	565.699	-985.015	-152.559	619.448	-813.267	-154.985	514.376	-906.646	-163.726	423.717	-1019.747	-231.521	275.162	-1035.017	-251.974	316.360	-956.778	-285.768	206.775	-917.918	-338.158	106.706	-920.198	-331.366	77.720	-840.243	-352.277	22.742	-1007.137	-288.071	56.886	-1034.794
